<?xml version="1.0" encoding="UTF-8"?>
<svg version="1.1" viewBox="0 0 1024 1024" width="1280" height="1280" xmlns="http://www.w3.org/2000/svg">
<path transform="translate(0)" d="m0 0h1024v1024h-1024z" fill="#FFFFFF"/>
<path transform="translate(508,300)" d="m0 0 8 1 36 12 38 12 93 31 32 11 2 2-30 11-33 13-2-1-4-7-5-3 3 7 1 6v32l-4 6h-3l-2-5-1-28-2-9-4-6v-2l-4-2-7-4-35-8-55-12-9-2-7-2h-11l-8 3-1 5 1 3 10 2 13-1 5-1 54 12 34 8 12 6 5 6 2 4v3l-13 6h-2v60l-4 8-8 6-22 13-23 13-45 26-3 1-27-15-23-13-28-16-20-12-5-6-1-2v-61l-10-3-67-27-27-11v-2l88-30 36-12 62-20z" fill="#012231"/>
<path transform="translate(505,546)" d="m0 0 5 3 5-1 1-2v51l6-7 14-11 15-7 21-6 15-2h24l20 3 44 12 9 2 2 6v5h-12l-23-2-27-5-9-1h-28l-18 3-16 5-12 5-14 9-10 9-1 1-1 15 9 1 10 4 11 8 9 11 5 12 4 19v3l-7 1 8 2 3 23v33l-4 17-6 12-7 9-10 9-12 6-13 3h-11l-13-3-13-7-11-11-8-13-5-16-1-7v-33l3-21 4-1h28v-2l-30-1v-7l4-16 4-10 7-9 7-7 14-7 11-3v-13l-8-8-15-10-17-8-17-5-14-2h-31l-44 7-14 1h-11l2-11 21-5 25-7 18-4 9-1h25l20 3 17 5 17 9 12 11 6 7-1-6z" fill="#012231"/>
<path transform="translate(494,236)" d="m0 0h35l23 3 27 6 27 9 23 10 21 12 16 11 11 9 12 11 7 8-5 5-5 3-8-6-11-10-16-12-13-8-18-10-21-9-27-9-23-5-15-2h-45l-21 3-21 5-27 9-22 10-19 11-16 11-9 7-13 11-23 23-4 5-4-1-8-5 2-5 13-15 13-13 8-7 15-12 18-12 22-12 17-8 24-9 22-6 21-4z" fill="#012231"/>
<path transform="translate(673,462)" d="m0 0 9 2 10 3 2 2 13 57 20 88v5h-191l5-5 9-6 13-6 16-4 7-1h38l37 4 35 1 7 1-14-63-15-72z" fill="#012231"/>
<path transform="translate(344,462)" d="m0 0 3 1-15 74-13 60-1 6 14-1 27-1 39-4h37l15 3 14 5 13 7 7 6v1h-191l9-42 13-58 11-49 2-3z" fill="#012231"/>
<path transform="translate(330,371)" d="m0 0 8 1 28 8 49 16 48 17 43 15 2 1 9-1 57-20 35-12 5 1 5 4-11 5-37 14-48 19-11 4-7-1-42-16-60-24-28-11-31-13-14-6z" fill="#F3F5F5"/>
<path transform="translate(312,646)" d="m0 0 5 1 9 11 11 12 6 5v2l4 2 12 10 17 12 14 8 15 8 28 11 1 1v15l-12-3-24-10-19-10-11-7-17-12-10-8-12-11-16-16-8-10-2-4 7-6z" fill="#012231"/>
<path transform="translate(361,457)" d="m0 0h2l4 16v23l-5 32-5 28 34-6 9-1h30l16 3 15 6 12 7 9 8-2 1-14-7-13-4-18-3-11-1h-10l-23 2-34 6-14 2 1-11 11-58 5-31z" fill="#012231"/>
<path transform="translate(665,502)" d="m0 0 2 2 7 40 4 20v5l-16-2-34-6-31-2-21 2-16 4-16 6h-3l9-8 12-7 16-5 11-2h30l28 4 17 3-5-25v-13l5-14z" fill="#012231"/>
<path transform="translate(261,434)" d="m0 0h9l10 5 5 6 3 7v10l-4 8-8 7-8 3h-7l-9-4-5-4-4-7-1-4v-9l4-9 8-7z" fill="#012231"/>
<path transform="translate(640,435)" d="m0 0 7 1 5 5 2 4v59l-6 5-2 1h-7l-5-3-3-3-1-4 1-56 4-6z" fill="#012231"/>
<path transform="translate(757,444)" d="m0 0 9 1 7 4 5 6 2 4v11l-4 8-8 6-3 1h-11l-8-4-6-8-1-4v-8l3-8 7-6z" fill="#012231"/>
<path transform="translate(712,386)" d="m0 0 4 4 2 6 1 17 7 7 2 4v10l-4 6-7 4h-8l-7-4-4-8 1-9 5-7 3-2 2-21z" fill="#012231"/>
<path transform="translate(507,649)" d="m0 0h7l5 5 1 41-2 6-3 3h-9l-4-4-1-3v-42l2-4z" fill="#F3F5F5"/>
<path transform="translate(632,709)" d="m0 0h6l4 6v6l-21 11-21 8-14 4v-16l21-7 20-9z" fill="#012231"/>
<path transform="translate(264,499)" d="m0 0 2 1 3 9 1 11 8 10 1 3v8l-4 6-8 4-9-2-5-5-2-4 1-9 4-6 3-1v-12l2-9z" fill="#012231"/>
<path transform="translate(754,499)" d="m0 0h2l1 6-5 32-4 6-4 2h-8l-5-5-1-2v-7l5-6 2-1h7l5-19z" fill="#012231"/>
<path transform="translate(682,671)" d="m0 0 4 2 5 6v4h-2l-2 4-8 7-11 9-3 2h-6l-6-8 1-3 16-12z" fill="#012231"/>
<path transform="translate(347,414)" d="m0 0h6l6 4 2 4v8l-4 5-4 2h-7l-6-5-1-2v-9l4-5z" fill="#012231"/>
<path transform="translate(474,699)" d="m0 0 1 3-4 18-1 21 2 18 1 7-3-4-5-15-2-10v-31l1-6z" fill="#F3F5F5"/>
<path transform="translate(417,442)" d="m0 0 7 6 13 12 3 4-5-2-11-7 1 4 7 8 5 5 8 7 10 7-2 1-21-10-14-10-1-1z" fill="#F3F5F5"/>
<path transform="translate(359,637)" d="m0 0 7 1 5 5 1 5-2 5-5 4h-8l-5-5-1-2v-6l2-4z" fill="#012231"/>
<path transform="translate(388,668)" d="m0 0 5 1 14 8 11 6 1 1v5l-1 1h-6l-19-10-7-5v-5z" fill="#012231"/>
<path transform="translate(619,674)" d="m0 0h6l1 5-9 6-15 7-4-1-1-5 8-5z" fill="#012231"/>
<path transform="translate(705,646)" d="m0 0 6 1 4 4v7l-5 4-5 1-5-3-1-2v-7l4-4z" fill="#012231"/>
<path transform="translate(706,331)" d="m0 0h7l4 4v6l-5 5h-6l-4-4-1-4 3-6z" fill="#012231"/>
<path transform="translate(311,399)" d="m0 0 2 4v16l-4 4h-5l-3-4 2-5 4-2 2-12z" fill="#012231"/>
<path transform="translate(647,655)" d="m0 0h5l3 5-2 4-6 1-3-4 1-4z" fill="#012231"/>
<path transform="translate(290,499)" d="m0 0h5l3 4-2 5-5 1-3-2v-6z" fill="#012231"/>
<path transform="translate(740,571)" d="m0 0 7 1 1 5-2 3-4 1-4-4 1-5z" fill="#012231"/>
<path transform="translate(562,282)" d="m0 0 5 1 1 1v6l-3 2-4-1-2-2 1-5z" fill="#012231"/>
<path transform="translate(493,274)" d="m0 0 5 2 1 4-4 4-4-1-2-2 1-5z" fill="#012231"/>
<path transform="translate(529,274)" d="m0 0 5 2 1 1v5l-2 2-6-1-1-6z" fill="#012231"/>
<path transform="translate(596,294)" d="m0 0 5 2 1 5-3 3-5-1-1-6z" fill="#012231"/>
<path transform="translate(457,282)" d="m0 0h5l2 2v5l-3 2-5-1-1-1v-5z" fill="#012231"/>
<path transform="translate(626,310)" d="m0 0 5 1 2 2-1 5-1 1-7-1v-6z" fill="#012231"/>
<path transform="translate(389,310)" d="m0 0 4 1 2 2-1 5-1 1h-5l-2-2v-5z" fill="#012231"/>
<path transform="translate(421,294)" d="m0 0h5l2 2v5l-2 2-5-1-2-2 1-5z" fill="#012231"/>
<path transform="translate(418,431)" d="m0 0 4 2 14 11 2 3-5-2-13-10z" fill="#F3F5F5"/>
<path transform="translate(757,422)" d="m0 0 4 1 1 5-1 1h-5l-1-5z" fill="#012231"/>
<path transform="translate(751,406)" d="m0 0 5 1 1 4-2 2-5-1v-5z" fill="#012231"/>
<path transform="translate(265,417)" d="m0 0h5l1 5-1 1h-5l-1-4z" fill="#012231"/>
<path transform="translate(278,383)" d="m0 0 5 2-1 4-4 1-2-1 1-5z" fill="#012231"/>
<path transform="translate(270,400)" d="m0 0h5l1 4-1 2h-5l-1-4z" fill="#012231"/>
</svg>
